<?xml version="1.0" standalone="no"?>
<!DOCTYPE svg PUBLIC "-//W3C//DTD SVG 20010904//EN"
 "http://www.w3.org/TR/2001/REC-SVG-20010904/DTD/svg10.dtd">
<svg version="1.0" xmlns="http://www.w3.org/2000/svg"
 width="1024.000000pt" height="1024.000000pt" viewBox="0 0 1024.000000 1024.000000"
 preserveAspectRatio="xMidYMid meet">

<g transform="translate(0.000000,1024.000000) scale(0.100000,-0.100000)"
fill="#3B5858" stroke="none">
<path d="M4790 10224 c-19 -2 -91 -9 -160 -14 -362 -31 -780 -119 -1156 -245
-920 -309 -1747 -893 -2366 -1671 -628 -789 -995 -1722 -1084 -2749 -20 -234
-15 -751 10 -970 119 -1049 509 -1961 1180 -2760 136 -161 452 -478 606 -606
807 -672 1691 -1049 2750 -1175 182 -22 732 -30 928 -15 1117 89 2108 497
2952 1215 132 112 439 419 552 551 719 843 1130 1838 1219 2957 15 196 7 746
-15 928 -101 856 -370 1603 -819 2275 -877 1312 -2262 2133 -3827 2270 -156
13 -658 19 -770 9z m1580 -815 c365 -62 669 -213 929 -464 251 -242 408 -524
476 -855 37 -177 34 -427 -5 -614 -71 -330 -171 -491 -685 -1111 -417 -502
-594 -759 -779 -1135 -105 -212 -173 -381 -242 -597 -27 -84 -52 -153 -55
-153 -3 0 -12 33 -19 73 -66 376 -213 779 -406 1113 -133 231 -217 348 -551
765 -373 467 -476 618 -548 797 -82 207 -110 379 -102 627 7 231 45 392 142
600 152 329 443 624 780 793 164 81 382 148 560 172 127 16 376 11 505 -11z"/>
<path d="M5975 8649 c-91 -13 -212 -54 -285 -96 -37 -21 -105 -77 -156 -129
-79 -77 -99 -104 -137 -185 -59 -121 -77 -190 -84 -320 -21 -384 212 -704 581
-799 164 -42 381 -22 533 49 331 155 504 517 424 882 -59 265 -255 485 -501
563 -131 42 -250 53 -375 35z"/>
</g>
</svg>
